<svg data-v-423bf9ae="" xmlns="http://www.w3.org/2000/svg" viewBox="0 0 507 90" class="iconLeft"><!----><!----><!----><g data-v-423bf9ae="" id="8a3c5995-fde5-4e69-a0cf-6e357442788c" fill="#000000" transform="matrix(5.928853821986509,0,0,5.928853821986509,111.83795332588963,0.47430952235332313)"><path d="M7.52 5.19C7.52 3.84 7.99 3.42 9.35 3.42L9.35 3.19L5.35 3.19L5.35 3.42L5.45 3.42C6.80 3.42 7.24 3.84 7.24 5.19L7.24 10.61L7.15 10.61L3.44 4.24C3.01 3.51 2.69 3.19 1.74 3.19L0.28 3.19L0.28 3.40C0.87 3.40 1.44 3.53 1.75 4.05L1.75 11.17C1.75 12.00 1.27 12.28 0.98 12.28C0.91 12.28 0.85 12.24 0.85 12.15C0.85 12.08 0.90 12.04 0.97 12.01C1.19 11.93 1.40 11.73 1.40 11.37C1.40 10.98 1.09 10.63 0.60 10.63C-0.01 10.63-0.31 11.12-0.31 11.56C-0.31 12.08 0.13 12.57 0.78 12.57C1.47 12.57 2.03 12.11 2.03 11.17L2.03 4.62L2.09 4.62L5.78 10.98C6.34 11.94 6.62 12.39 7.29 12.39L7.52 12.39ZM13.09 12.57C15.08 12.57 16.17 11.06 16.17 9.07C16.17 7.08 15.08 5.57 13.09 5.57C11.10 5.57 10.01 7.08 10.01 9.07C10.01 11.06 11.10 12.57 13.09 12.57ZM14.81 9.07C14.81 10.63 14.64 12.33 13.09 12.33C11.54 12.33 11.37 10.63 11.37 9.07C11.37 7.52 11.54 5.81 13.09 5.81C14.64 5.81 14.81 7.52 14.81 9.07ZM24.04 5.85C25.26 5.85 25.72 6.59 25.72 7.13C25.72 7.20 25.66 7.25 25.59 7.25C25.52 7.25 25.48 7.21 25.47 7.13C25.42 6.93 25.21 6.76 24.91 6.76C24.49 6.76 24.23 7.11 24.23 7.52C24.23 7.94 24.60 8.26 25.02 8.26C25.58 8.26 25.98 7.83 25.98 7.27C25.98 6.06 25.02 5.57 23.81 5.57C21.74 5.57 20.78 7 20.78 9.07C20.78 11.06 21.74 12.57 23.73 12.57C25.06 12.57 25.90 11.62 26.17 10.30L25.91 10.28C25.69 11.30 25.10 12.18 24.07 12.18C22.47 12.18 22.13 10.58 22.13 8.99C22.13 7.42 22.47 5.85 24.04 5.85ZM31.96 6.64C31.96 6.72 31.89 6.76 31.84 6.76C31.77 6.76 31.72 6.72 31.71 6.64C31.67 6.44 31.46 6.27 31.15 6.27C30.73 6.27 30.48 6.62 30.48 7.03C30.48 7.45 30.84 7.77 31.26 7.77C31.82 7.77 32.23 7.32 32.23 6.78C32.23 6.03 31.74 5.57 31.05 5.57C30.13 5.57 29.61 6.27 29.29 7.13L29.20 7.13L29.20 5.67C28.55 5.81 27.90 5.85 27.23 5.85L26.94 5.85L26.94 6.06L27.93 6.06L27.93 12.08L27.01 12.08L27.01 12.29L30.20 12.29L30.20 12.08L29.18 12.08L29.18 9.48C29.18 8.01 29.60 5.80 31.05 5.80C31.54 5.80 31.96 6.15 31.96 6.64ZM37.81 6.06L37.81 8.60C37.81 10.19 37.49 12.18 35.90 12.18C34.86 12.18 34.86 10.64 34.86 9.51L34.86 5.67C34.20 5.81 33.59 5.85 32.91 5.85L32.62 5.85L32.62 6.06L33.61 6.06L33.61 9.70C33.61 11.41 33.92 12.57 35.63 12.57C36.57 12.57 37.39 11.97 37.70 11.07L37.79 11.07L37.79 12.29L39.98 12.29L39.98 12.08L39.06 12.08L39.06 5.67C38.40 5.81 37.79 5.85 37.11 5.85L36.82 5.85L36.82 6.06ZM44.17 12.08L43.25 12.08L43.25 9.55C43.25 7.95 43.53 5.96 45.12 5.96C46.09 5.96 46.16 7.08 46.16 8.12L46.16 12.08L45.23 12.08L45.23 12.29L48.26 12.29L48.26 12.08L47.33 12.08L47.33 9.55C47.33 7.95 47.61 5.96 49.21 5.96C50.18 5.96 50.25 7.08 50.25 8.12L50.25 12.08L49.32 12.08L49.32 12.29L52.42 12.29L52.42 12.08L51.49 12.08L51.49 8.44C51.49 6.71 51.21 5.57 49.48 5.57C48.54 5.57 47.75 6.17 47.45 7.07L47.36 7.07C47.17 6.13 46.61 5.57 45.39 5.57C44.45 5.57 43.67 6.17 43.36 7.07L43.27 7.07L43.27 5.67C42.60 5.81 41.99 5.85 41.30 5.85L41.01 5.85L41.01 6.06L42 6.06L42 12.08L41.08 12.08L41.08 12.29L44.17 12.29ZM55.40 2.45C54.74 2.59 54.12 2.63 53.45 2.63L53.16 2.63L53.16 2.84L54.15 2.84L54.15 12.08L53.23 12.08L53.23 12.29L55.40 12.29L55.40 11.42L55.48 11.42C55.83 12.17 56.50 12.57 57.32 12.57C59.19 12.57 59.89 10.91 59.89 9.03C59.89 7.24 59.21 5.57 57.41 5.57C56.46 5.57 55.80 6.22 55.48 7.13L55.40 7.13ZM55.37 9.06C55.37 7.88 55.90 5.96 57.08 5.96C58.39 5.96 58.53 7.71 58.53 9.03C58.53 10.37 58.45 12.18 57.11 12.18C55.82 12.18 55.37 10.85 55.37 9.56ZM64.18 5.57C62.93 5.57 61.77 6.26 61.77 7.50C61.77 9.74 65.70 9.30 65.70 10.98C65.70 12.04 64.74 12.29 63.67 12.29C62.30 12.29 61.81 11.58 61.81 11.13C61.81 11.05 61.88 11.00 61.94 11.00C62.01 11.00 62.05 11.05 62.06 11.13C62.10 11.33 62.31 11.49 62.62 11.49C63.04 11.49 63.29 11.14 63.29 10.74C63.29 10.32 62.93 10.00 62.51 10.00C61.95 10.00 61.54 10.43 61.54 10.99C61.54 12.14 62.69 12.57 63.90 12.57C65.38 12.57 66.60 11.98 66.60 10.50C66.60 8.26 62.66 8.71 62.66 7.03C62.66 6.19 63.56 5.85 64.40 5.85C65.69 5.85 66.04 6.45 66.04 6.87C66.04 6.96 65.97 7 65.91 7C65.84 7 65.80 6.96 65.79 6.87C65.74 6.68 65.53 6.51 65.23 6.51C64.81 6.51 64.55 6.86 64.55 7.27C64.55 7.69 64.92 8.01 65.34 8.01C65.90 8.01 66.30 7.57 66.30 7.01C66.30 5.91 65.28 5.57 64.18 5.57Z"></path></g><defs data-v-423bf9ae=""><linearGradient data-v-423bf9ae="" gradientTransform="rotate(25)" id="ed2dc174-a144-4244-8d30-857d26a4d225" x1="0%" y1="0%" x2="100%" y2="0%"><stop data-v-423bf9ae="" offset="0%" style="stop-color: rgb(137, 75, 72); stop-opacity: 1;"></stop><stop data-v-423bf9ae="" offset="100%" style="stop-color: rgb(213, 159, 137); stop-opacity: 1;"></stop></linearGradient></defs><g data-v-423bf9ae="" id="6c8c7851-3c3b-4da0-ac1b-4c5fd05a928e" transform="matrix(2.8125,0,0,2.8125,0,0)" stroke="none" fill="url(#ed2dc174-a144-4244-8d30-857d26a4d225)"><path d="M4.029 14.362L14.362 4.028l.707.707L4.736 15.07zM17.135 27.47L27.47 17.135l.707.707-10.333 10.333zM4.029 17.841l.707-.707 10.333 10.334-.707.707zM17.135 4.735l.708-.707L28.176 14.36l-.707.707z"></path><g><path d="M16 1.414l1.683 1.683L16 4.779l-1.683-1.683L16 1.414M16 0l-3.097 3.097L16 6.194l3.097-3.097L16 0zM16 27.221l1.683 1.683L16 30.586l-1.683-1.683L16 27.221m0-1.415l-3.097 3.097L16 32l3.097-3.097L16 25.806zM3.097 14.317L4.779 16l-1.683 1.683L1.414 16l1.683-1.683m0-1.414L0 16l3.097 3.097L6.194 16l-3.097-3.097zM28.903 14.317L30.586 16l-1.683 1.683L27.221 16l1.682-1.683m0-1.414L25.806 16l3.097 3.097L32 16l-3.097-3.097z"></path></g></g><!----></svg>